<?xml version="1.0" encoding="utf-8"?>
<!-- Generator: Adobe Illustrator 16.0.0, SVG Export Plug-In . SVG Version: 6.00 Build 0)  -->
<!DOCTYPE svg PUBLIC "-//W3C//DTD SVG 1.1//EN" "http://www.w3.org/Graphics/SVG/1.1/DTD/svg11.dtd">
<svg version="1.1" id="圖層_1" xmlns="http://www.w3.org/2000/svg" xmlns:xlink="http://www.w3.org/1999/xlink" x="0px" y="0px"
	 width="55px" height="50px" viewBox="0 0 55 50" enable-background="new 0 0 55 50" xml:space="preserve">
<g>
	<g>
		<path d="M33.252,38.174c0.168,0.092,0.354,0.138,0.539,0.138c0.209,0,0.416-0.058,0.6-0.173l15.08-9.48
			c0.529-0.332,0.689-1.033,0.357-1.566c-0.332-0.53-1.027-0.692-1.559-0.359l-14.52,9.129l-8.315-4.523v-2.104l7.817,4.253
			c0.168,0.091,0.354,0.138,0.539,0.138c0.209,0,0.416-0.059,0.6-0.174l15.08-9.48c0.34-0.215,0.543-0.596,0.529-1.001
			s-0.242-0.772-0.598-0.964l-7.66-4.117c0.305-0.218,0.49-0.568,0.482-0.947c-0.01-0.404-0.234-0.774-0.588-0.969l-10.129-5.586
			c-0.352-0.194-0.781-0.186-1.127,0.021l-1.201,0.726l-7.438-3.998c-0.354-0.19-0.781-0.178-1.123,0.034l-15.08,9.301
			C5.195,16.684,4.988,17.064,5,17.47s0.236,0.774,0.592,0.968l7.186,3.909v2.104l-6.107-3.324c-0.551-0.3-1.236-0.094-1.533,0.458
			s-0.094,1.241,0.455,1.54l7.186,3.909v2.104l-6.107-3.323c-0.551-0.299-1.236-0.094-1.533,0.458s-0.094,1.241,0.455,1.54
			l7.186,3.908v1.152c0,0.414,0.225,0.797,0.586,0.996l10.398,5.744c0.168,0.094,0.357,0.14,0.543,0.14
			c0.199,0,0.398-0.053,0.576-0.158c0.344-0.204,0.555-0.576,0.555-0.978v-0.009l7.817,4.253c0.168,0.092,0.354,0.137,0.539,0.137
			c0.209,0,0.416-0.058,0.6-0.173l15.08-9.479c0.529-0.333,0.689-1.034,0.357-1.566c-0.332-0.531-1.027-0.693-1.559-0.359
			l-14.52,9.128l-8.315-4.522v-2.104L33.252,38.174z M46.615,23.085L33.75,31.174l-7.223-3.93l12.989-7.977L46.615,23.085z
			 M8.392,17.377l12.855-7.93l5.674,3.049l-13.043,7.867L8.392,17.377z M23.714,26.309c-0.336,0.206-0.539,0.573-0.539,0.969v9.418
			l-8.137-4.494v-9.888l15.95-9.621l7.85,4.329L23.714,26.309z M31.82,16.697c0.004-0.041-0.02-0.076-0.063-0.105l-0.65-0.418
			c-0.041-0.026-0.094-0.038-0.156-0.034c-0.063,0.005-0.119,0.022-0.164,0.055l-0.951,0.677c-0.609-0.25-1.254-0.346-1.934-0.287
			c-0.68,0.057-1.264,0.26-1.748,0.604c-0.146,0.103-0.27,0.21-0.371,0.319c-0.104,0.109-0.188,0.215-0.252,0.314
			c-0.063,0.1-0.109,0.209-0.135,0.327c-0.027,0.118-0.045,0.226-0.051,0.318c-0.006,0.095,0.006,0.202,0.033,0.325
			c0.029,0.123,0.057,0.227,0.084,0.309s0.072,0.186,0.137,0.311c0.064,0.123,0.113,0.221,0.154,0.289
			c0.041,0.069,0.096,0.164,0.164,0.285c0.098,0.164,0.168,0.287,0.213,0.369c0.043,0.082,0.092,0.19,0.148,0.324
			c0.055,0.135,0.082,0.242,0.082,0.322s-0.021,0.168-0.061,0.262c-0.041,0.094-0.111,0.175-0.209,0.244
			c-0.279,0.199-0.592,0.287-0.939,0.269c-0.348-0.021-0.654-0.112-0.91-0.28c-0.119-0.076-0.225-0.163-0.314-0.26
			c-0.326-0.333-0.494-0.74-0.508-1.221l0.002-0.015c0.01-0.046-0.014-0.081-0.068-0.108c-0.059-0.027-0.115-0.035-0.174-0.025
			l-1.207,0.188c-0.119,0.02-0.189,0.072-0.207,0.16c-0.006,0.025-0.01,0.066-0.012,0.121c-0.004,0.057,0.006,0.151,0.025,0.285
			c0.02,0.135,0.053,0.271,0.104,0.409c0.047,0.14,0.131,0.3,0.25,0.482c0.121,0.182,0.27,0.353,0.449,0.511l-0.924,0.656
			c-0.047,0.033-0.072,0.07-0.072,0.114c-0.006,0.044,0.014,0.079,0.057,0.104l0.646,0.42c0.047,0.028,0.098,0.041,0.158,0.037
			s0.117-0.024,0.166-0.059l0.924-0.656c0.602,0.262,1.256,0.359,1.963,0.287c0.709-0.07,1.33-0.297,1.871-0.68
			c0.176-0.125,0.32-0.256,0.434-0.394c0.113-0.137,0.198-0.265,0.254-0.386c0.055-0.119,0.082-0.252,0.08-0.401
			s-0.014-0.275-0.033-0.38c-0.021-0.104-0.066-0.235-0.139-0.393c-0.07-0.158-0.131-0.28-0.18-0.367
			c-0.049-0.086-0.123-0.21-0.225-0.369c-0.086-0.143-0.148-0.249-0.191-0.32c-0.037-0.072-0.088-0.168-0.145-0.289
			c-0.061-0.121-0.096-0.218-0.107-0.289c-0.01-0.072-0.018-0.154-0.014-0.246c0.002-0.094,0.027-0.175,0.078-0.248
			c0.049-0.072,0.119-0.141,0.211-0.206c0.24-0.17,0.533-0.247,0.874-0.23c0.344,0.017,0.668,0.122,0.973,0.318
			c0.135,0.087,0.25,0.19,0.35,0.308c0.1,0.119,0.174,0.229,0.221,0.329c0.049,0.1,0.086,0.2,0.113,0.301
			c0.025,0.101,0.041,0.174,0.045,0.221c0.006,0.046,0.008,0.077,0.008,0.089c0.008,0.053,0.037,0.09,0.092,0.111
			c0.053,0.027,0.117,0.032,0.195,0.011l1.162-0.298c0.107-0.024,0.166-0.077,0.176-0.158c0.002-0.026,0.002-0.06,0.002-0.099
			c0-0.038-0.012-0.114-0.035-0.229c-0.021-0.114-0.057-0.228-0.105-0.337c-0.049-0.11-0.129-0.243-0.242-0.396
			c-0.111-0.152-0.248-0.296-0.408-0.429l0.93-0.661C31.791,16.776,31.818,16.738,31.82,16.697z"/>
	</g>
</g>
</svg>
