<?xml version="1.0" encoding="utf-8"?>
<!-- Generator: Adobe Illustrator 16.0.0, SVG Export Plug-In . SVG Version: 6.00 Build 0)  -->
<!DOCTYPE svg PUBLIC "-//W3C//DTD SVG 1.1//EN" "http://www.w3.org/Graphics/SVG/1.1/DTD/svg11.dtd">
<svg version="1.1" id="圖層_1" xmlns="http://www.w3.org/2000/svg" xmlns:xlink="http://www.w3.org/1999/xlink" x="0px" y="0px"
	 width="55px" height="50px" viewBox="0 0 55 50" enable-background="new 0 0 55 50" xml:space="preserve">
<g>
	<g>
		<path d="M25.122,42.684C15.316,42.684,7.338,34.75,7.338,25c0-9.75,7.978-17.682,17.783-17.682
			c8.748,0,16.035,6.315,17.505,14.601l-1.916-1.905c-0.457-0.455-1.195-0.455-1.652,0c-0.457,0.453-0.457,1.189,0,1.643
			l3.834,3.813l0.156,0.156l0.199,0.197c0.219,0.216,0.516,0.339,0.826,0.339c0.215,0,0.422-0.063,0.605-0.171
			c0.078-0.049,0.154-0.102,0.221-0.168l0.326-0.324l3.861-3.842c0.457-0.453,0.457-1.189,0-1.643c-0.457-0.455-1.195-0.455-1.652,0
			l-2.373,2.359C43.764,12.58,35.32,4.994,25.122,4.994C14.027,4.994,5,13.969,5,25c0,11.033,9.026,20.007,20.121,20.007
			c2.97,0,5.791-0.648,8.332-1.803c-0.518-0.596-0.979-1.242-1.355-1.941C29.955,42.176,27.596,42.684,25.122,42.684z
			 M15.117,34.883c0,0.643,0.523,1.164,1.169,1.164s1.169-0.521,1.169-1.164c0-2.123,0.734-3.885,2.245-5.389
			c1.514-1.502,3.286-2.234,5.421-2.234c2.134,0,3.907,0.732,5.418,2.234c0.6,0.596,1.072,1.236,1.432,1.92
			c0.389-0.77,0.865-1.486,1.422-2.137c-0.35-0.498-0.746-0.975-1.199-1.428c-0.885-0.877-1.859-1.547-2.916-2.029
			c0.197-0.158,0.389-0.326,0.574-0.51c1.301-1.295,1.961-2.877,1.961-4.703c0-1.824-0.66-3.408-1.961-4.703
			c-1.303-1.293-2.894-1.95-4.731-1.95s-3.429,0.656-4.733,1.95c-1.299,1.293-1.957,2.876-1.957,4.703
			c0,1.828,0.658,3.41,1.959,4.705c0.186,0.184,0.377,0.35,0.573,0.508c-1.056,0.482-2.033,1.152-2.917,2.031
			C16.102,29.785,15.117,32.152,15.117,34.883z M20.768,20.608c0-1.205,0.416-2.207,1.272-3.059c0.86-0.855,1.868-1.27,3.08-1.27
			s2.218,0.414,3.077,1.268c0.859,0.855,1.277,1.857,1.277,3.061c0,1.204-0.418,2.205-1.277,3.061
			c-0.858,0.854-1.864,1.268-3.077,1.268c-1.212,0-2.22-0.414-3.078-1.268S20.768,21.815,20.768,20.608z M48.867,32.004
			c-0.752-1.283-1.773-2.299-3.064-3.047c-1.289-0.75-2.699-1.125-4.227-1.125s-2.938,0.375-4.229,1.125
			c-1.289,0.748-2.313,1.764-3.064,3.047c-0.754,1.283-1.131,2.684-1.131,4.203s0.377,2.922,1.131,4.205
			c0.752,1.283,1.775,2.299,3.064,3.047c1.291,0.748,2.701,1.123,4.229,1.123s2.938-0.375,4.227-1.123
			c1.291-0.748,2.313-1.764,3.064-3.047c0.754-1.283,1.131-2.686,1.131-4.205S49.621,33.287,48.867,32.004z M46.766,36.574
			l-4.865,4.42c-0.113,0.104-0.248,0.156-0.404,0.156c-0.154,0-0.287-0.053-0.402-0.156c-0.111-0.102-0.168-0.225-0.168-0.365v-2.34
			h-3.357c-0.154,0-0.291-0.053-0.404-0.156c-0.113-0.102-0.168-0.225-0.168-0.365v-3.121c0-0.141,0.055-0.262,0.168-0.365
			s0.25-0.154,0.404-0.154h3.357v-2.342c0-0.141,0.057-0.262,0.168-0.365c0.115-0.104,0.248-0.154,0.402-0.154
			c0.156,0,0.291,0.051,0.404,0.154l4.865,4.422c0.113,0.104,0.17,0.225,0.17,0.365S46.879,36.471,46.766,36.574z"/>
	</g>
</g>
</svg>
