<?xml version="1.0" encoding="utf-8"?>
<!-- Generator: Adobe Illustrator 16.0.0, SVG Export Plug-In . SVG Version: 6.00 Build 0)  -->
<!DOCTYPE svg PUBLIC "-//W3C//DTD SVG 1.1//EN" "http://www.w3.org/Graphics/SVG/1.1/DTD/svg11.dtd">
<svg version="1.1" id="圖層_1" xmlns="http://www.w3.org/2000/svg" xmlns:xlink="http://www.w3.org/1999/xlink" x="0px" y="0px"
	 width="55px" height="50px" viewBox="0 0 55 50" enable-background="new 0 0 55 50" xml:space="preserve">
<g>
	<g>
		<path d="M25.123,42.683C15.317,42.683,7.339,34.75,7.339,25S15.317,7.317,25.123,7.317c8.747,0,16.034,6.315,17.506,14.601
			l-1.917-1.905c-0.457-0.454-1.196-0.454-1.653,0c-0.456,0.454-0.456,1.189,0,1.644l3.834,3.813l0.157,0.155l0.198,0.197
			c0.219,0.218,0.517,0.341,0.826,0.341c0.216,0,0.423-0.063,0.605-0.172c0.079-0.049,0.154-0.103,0.221-0.169l0.327-0.324
			l3.861-3.841c0.457-0.454,0.457-1.189,0-1.644c-0.456-0.454-1.196-0.454-1.652,0l-2.373,2.359
			c-1.299-9.794-9.743-17.379-19.94-17.379C14.028,4.993,5.001,13.969,5.001,25c0,11.032,9.027,20.007,20.122,20.007
			c2.971,0,5.791-0.649,8.331-1.804c-0.519-0.594-0.979-1.241-1.356-1.939C29.955,42.176,27.598,42.683,25.123,42.683z
			 M15.117,34.884c0,0.642,0.523,1.162,1.169,1.162s1.169-0.521,1.169-1.162c0-2.124,0.734-3.887,2.245-5.39
			c1.514-1.503,3.286-2.234,5.421-2.234c2.134,0,3.906,0.731,5.419,2.234c0.6,0.596,1.072,1.235,1.431,1.919
			c0.39-0.769,0.866-1.486,1.423-2.136c-0.35-0.498-0.746-0.976-1.2-1.428c-0.884-0.877-1.859-1.547-2.915-2.029
			c0.196-0.158,0.389-0.326,0.574-0.51c1.301-1.295,1.961-2.878,1.961-4.703c0-1.826-0.66-3.408-1.962-4.704
			c-1.302-1.294-2.893-1.949-4.73-1.949c-1.836,0-3.428,0.655-4.732,1.95c-1.299,1.293-1.958,2.875-1.958,4.703
			s0.659,3.41,1.96,4.705c0.185,0.183,0.376,0.35,0.572,0.508c-1.056,0.482-2.033,1.152-2.916,2.03
			C16.103,29.785,15.117,32.151,15.117,34.884z M20.769,20.607c0-1.206,0.417-2.207,1.273-3.06c0.86-0.854,1.868-1.27,3.079-1.27
			c1.212,0,2.219,0.415,3.076,1.269c0.86,0.855,1.278,1.856,1.278,3.061c0,1.203-0.418,2.205-1.277,3.061
			c-0.858,0.853-1.864,1.268-3.077,1.268c-1.212,0-2.22-0.415-3.078-1.268C21.186,22.814,20.769,21.813,20.769,20.607z
			 M48.868,32.004c-0.753-1.283-1.774-2.299-3.064-3.048s-2.699-1.124-4.228-1.124s-2.938,0.375-4.228,1.124
			c-1.291,0.749-2.313,1.765-3.065,3.048s-1.129,2.684-1.129,4.203s0.376,2.921,1.129,4.204c0.753,1.282,1.774,2.299,3.065,3.048
			c1.29,0.748,2.699,1.123,4.228,1.123s2.938-0.375,4.228-1.123c1.29-0.749,2.312-1.766,3.064-3.048
			c0.754-1.283,1.13-2.685,1.13-4.204S49.622,33.287,48.868,32.004z M46.489,36.904c0,0.189-0.069,0.354-0.209,0.491
			c-0.139,0.139-0.304,0.208-0.493,0.208h-2.808v2.791c0,0.189-0.069,0.353-0.208,0.49c-0.139,0.139-0.304,0.207-0.494,0.207h-1.403
			c-0.189,0-0.354-0.068-0.493-0.207c-0.14-0.138-0.209-0.301-0.209-0.49v-2.791h-2.807c-0.19,0-0.354-0.069-0.494-0.208
			c-0.139-0.138-0.208-0.302-0.208-0.491V35.51c0-0.189,0.069-0.354,0.208-0.491c0.14-0.138,0.304-0.207,0.494-0.207h2.807V32.02
			c0-0.188,0.069-0.352,0.209-0.49c0.139-0.139,0.304-0.207,0.493-0.207h1.403c0.19,0,0.355,0.068,0.494,0.207
			s0.208,0.302,0.208,0.49v2.792h2.808c0.189,0,0.354,0.069,0.493,0.207c0.14,0.138,0.209,0.302,0.209,0.491V36.904z"/>
	</g>
</g>
</svg>
