<?xml version="1.0" encoding="utf-8"?>
<!-- Generator: Adobe Illustrator 16.0.0, SVG Export Plug-In . SVG Version: 6.00 Build 0)  -->
<!DOCTYPE svg PUBLIC "-//W3C//DTD SVG 1.1//EN" "http://www.w3.org/Graphics/SVG/1.1/DTD/svg11.dtd">
<svg version="1.1" id="圖層_1" xmlns="http://www.w3.org/2000/svg" xmlns:xlink="http://www.w3.org/1999/xlink" x="0px" y="0px"
	 width="55px" height="50px" viewBox="0 0 55 50" enable-background="new 0 0 55 50" xml:space="preserve">
<path d="M49.992,25.963v-4.729c0-1.19-0.977-2.158-2.177-2.158h-9.021c-1.002-1.126-3.594-4-4.634-4.796l-0.245-0.189
	c-3.102-2.402-7.572-5.596-10.594-5.596c-1.838,0-4.593,1.03-7.51,2.119c-2.234,0.835-4.766,1.78-5.883,1.78
	c-0.092,0-0.229-0.012-0.4-0.032c-0.549-0.067-1.465-0.233-2.492-0.438c-0.354,0.732-0.66,1.491-0.926,2.268
	c-0.711,2.082-1.104,4.308-1.104,6.625c0,1.38,0.14,2.728,0.4,4.032c0.211,1.05,0.498,2.071,0.863,3.058
	c0.183,0.121,0.391,0.266,0.621,0.424c0.824,0.568,1.941,1.335,3.27,2.047c1.578,0.846,3.456,1.609,5.518,1.87v7.099
	c0,1.19,0.977,2.158,2.176,2.158h16.461c-0.869-0.682-1.612-1.491-2.244-2.403H18.104v-6.755h5.857c0.42,0,1.447,0.225,2.354,0.422
	c1.276,0.279,2.7,0.582,3.8,0.619c0.072,0.002,0.154,0.014,0.223,0.014c0.74,0,1.496-0.111,2.195-0.334
	c0.121,4.68,3.975,8.438,8.724,8.438c4.825,0,8.734-3.876,8.734-8.659c0-4.784-3.909-8.66-8.734-8.66
	c-2.539,0-4.817,1.08-6.413,2.795c-0.375-0.597-0.932-1.169-1.781-1.627c-0.596-0.32-1.322-0.587-2.227-0.763l-0.592-0.112
	c-1.518-0.285-5.551-1.041-5.551-2.239c0-0.373,0.125-0.611,0.23-0.747h13.333c0.003,0,0.005,0,0.008,0
	c0.049,0.001,0.094-0.007,0.141-0.011h9.163v2.259C48.488,24.366,49.305,25.104,49.992,25.963z M40.449,28.434v-1.427h1.615v1.382
	h1.402v1.604h-2.579c-0.569,0-1.034,0.46-1.034,1.025s0.465,1.025,1.034,1.025h0.737c1.461,0,2.65,1.178,2.65,2.627
	c0,1.3-0.96,2.375-2.211,2.584v1.428h-1.615v-1.383h-1.59v-1.604h2.766c0.569,0,1.033-0.46,1.033-1.025s-0.464-1.025-1.033-1.025
	h-0.737c-1.462,0-2.649-1.178-2.649-2.627C38.238,29.719,39.197,28.643,40.449,28.434z M24.492,19.088
	c-0.201,0-0.4,0.049-0.577,0.145c-0.512,0.274-1.312,1.028-1.562,2.248c-0.049,0.236-0.084,0.485-0.084,0.758
	c0,3.189,4.527,4.039,7.524,4.602l0.577,0.109c0.486,0.094,0.885,0.217,1.217,0.359c1.338,0.574,1.523,1.469,1.523,2.149
	c0,1.263-2.002,1.538-2.773,1.538c-0.025,0-0.057-0.002-0.082-0.003c-0.865-0.018-2.219-0.312-3.42-0.573
	c-1.176-0.256-2.191-0.478-2.875-0.478h-5.857h-0.945c-0.502,0-0.995-0.045-1.479-0.12c-3.047-0.476-5.691-2.285-7.373-3.445
	c-0.566-1.754-0.875-3.622-0.875-5.561c0-2.167,0.385-4.246,1.086-6.177c0.605,0.097,1.109,0.159,1.412,0.159
	c1.559,0,3.959-0.897,6.738-1.935c2.465-0.921,5.258-1.965,6.654-1.965c1.156,0,3.675,0.882,9.102,5.085l0.256,0.197
	c0.506,0.389,1.693,1.626,2.861,2.895c0.002,0.004,0.006,0.008,0.009,0.012H24.492z"/>
</svg>
