<?xml version="1.0" encoding="utf-8"?>
<!-- Generator: Adobe Illustrator 16.0.0, SVG Export Plug-In . SVG Version: 6.00 Build 0)  -->
<!DOCTYPE svg PUBLIC "-//W3C//DTD SVG 1.1//EN" "http://www.w3.org/Graphics/SVG/1.1/DTD/svg11.dtd">
<svg version="1.1" id="圖層_1" xmlns="http://www.w3.org/2000/svg" xmlns:xlink="http://www.w3.org/1999/xlink" x="0px" y="0px"
	 width="55px" height="50px" viewBox="0 0 55 50" enable-background="new 0 0 55 50" xml:space="preserve">
<g>
	<g>
		<path d="M26.9,38.177v-2.928c2.709-0.534,4.76-2.931,4.76-5.801c0-3.26-2.646-5.912-5.898-5.912h-1.588
			c-1.121,0-2.035-0.913-2.035-2.036c0-1.124,0.914-2.038,2.035-2.038h5.553v-3.875H26.9v-2.814h-3.867V15.7
			c-2.709,0.535-4.76,2.932-4.76,5.8c0,3.259,2.646,5.911,5.9,5.911h1.588c1.121,0,2.033,0.914,2.033,2.037
			c0,1.125-0.912,2.039-2.033,2.039h-5.955v3.874h3.227v2.815H26.9z M24.967,43.158c-9.732,0-17.648-7.933-17.648-17.683
			S15.234,7.793,24.967,7.793c8.682,0,15.914,6.315,17.375,14.603l-1.688-1.69c-0.451-0.454-1.188-0.454-1.639,0
			c-0.453,0.454-0.453,1.19,0,1.644l3.588,3.596l0.352,0.352c0.227,0.228,0.523,0.341,0.82,0.341c0.246,0,0.484-0.097,0.689-0.253
			c0.043-0.033,0.094-0.049,0.131-0.088l0.328-0.328l3.613-3.619c0.453-0.453,0.453-1.189,0-1.644s-1.188-0.454-1.641,0
			l-2.139,2.142c-1.289-9.793-9.67-17.378-19.791-17.378c-11.012,0-19.969,8.976-19.969,20.007c0,11.032,8.957,20.007,19.969,20.007
			c3.043,0,5.93-0.688,8.514-1.914c-0.506-0.6-0.943-1.257-1.309-1.958C29.971,42.603,27.533,43.158,24.967,43.158z M48.879,32.479
			c-0.746-1.282-1.76-2.299-3.041-3.048c-1.281-0.748-2.68-1.123-4.195-1.123c-1.518,0-2.916,0.375-4.197,1.123
			c-1.279,0.749-2.293,1.766-3.041,3.048c-0.748,1.284-1.121,2.685-1.121,4.204s0.373,2.921,1.121,4.205
			c0.748,1.282,1.762,2.299,3.041,3.047c1.281,0.75,2.68,1.123,4.197,1.123c1.516,0,2.914-0.373,4.195-1.123
			c1.281-0.748,2.295-1.765,3.041-3.047c0.75-1.284,1.123-2.686,1.123-4.205S49.629,33.763,48.879,32.479z M47.064,35.407
			l-5.912,5.922c-0.139,0.137-0.305,0.207-0.5,0.207c-0.189,0-0.352-0.07-0.49-0.207l-3.941-3.948
			c-0.129-0.131-0.195-0.295-0.195-0.491c0-0.203,0.066-0.37,0.195-0.501l0.99-0.981c0.139-0.139,0.303-0.207,0.49-0.207
			c0.189,0,0.352,0.068,0.49,0.207l2.461,2.465l4.439-4.438c0.139-0.138,0.301-0.208,0.49-0.208s0.352,0.07,0.49,0.208l0.992,0.981
			c0.129,0.13,0.195,0.298,0.195,0.502C47.26,35.112,47.193,35.276,47.064,35.407z"/>
	</g>
</g>
</svg>
