<?xml version="1.0" encoding="utf-8"?>
<!-- Generator: Adobe Illustrator 16.0.0, SVG Export Plug-In . SVG Version: 6.00 Build 0)  -->
<!DOCTYPE svg PUBLIC "-//W3C//DTD SVG 1.1//EN" "http://www.w3.org/Graphics/SVG/1.1/DTD/svg11.dtd">
<svg version="1.1" id="圖層_1" xmlns="http://www.w3.org/2000/svg" xmlns:xlink="http://www.w3.org/1999/xlink" x="0px" y="0px"
	 width="55px" height="50px" viewBox="0 0 55 50" enable-background="new 0 0 55 50" xml:space="preserve">
<path d="M48.819,28.498c-0.779-1.327-1.84-2.378-3.178-3.151c-1.337-0.774-2.799-1.162-4.384-1.162
	c-1.584,0-3.046,0.388-4.384,1.162c-0.774,0.447-1.444,0.999-2.032,1.631c-0.374-0.595-0.932-1.168-1.78-1.625
	c-0.595-0.32-1.321-0.587-2.226-0.763l-0.593-0.112c-1.518-0.284-5.55-1.041-5.55-2.239c0-0.373,0.124-0.611,0.229-0.747h13.334
	c0.003,0,0.005,0,0.007,0c0.05,0.001,0.095-0.007,0.141-0.011h9.163v2.26c0.921,0.626,1.737,1.363,2.424,2.223v-4.729
	c0-1.19-0.976-2.158-2.176-2.158h-9.021c-1.003-1.126-3.594-4-4.634-4.796l-0.245-0.189c-3.102-2.402-7.572-5.595-10.594-5.595
	c-1.838,0-4.594,1.029-7.511,2.118c-2.233,0.835-4.765,1.78-5.882,1.78c-0.093,0-0.229-0.012-0.401-0.032
	c-0.548-0.067-1.465-0.233-2.492-0.438c-0.354,0.732-0.659,1.491-0.925,2.268c-0.712,2.082-1.104,4.309-1.104,6.625
	c0,1.38,0.14,2.728,0.4,4.032c0.211,1.05,0.498,2.071,0.862,3.058c0.184,0.122,0.392,0.266,0.621,0.424
	c0.825,0.568,1.942,1.335,3.27,2.047c1.578,0.846,3.456,1.609,5.518,1.871v7.099c0,1.189,0.977,2.157,2.177,2.157h16.46
	c-0.868-0.682-1.611-1.491-2.243-2.403H18.104v-6.754h5.856c0.42,0,1.448,0.224,2.355,0.422c1.275,0.278,2.7,0.581,3.8,0.618
	c0.071,0.002,0.153,0.014,0.222,0.014c0.742,0,1.499-0.111,2.2-0.334c0.035,1.484,0.414,2.862,1.156,4.125
	c0.781,1.327,1.842,2.378,3.181,3.151c1.338,0.774,2.8,1.161,4.384,1.161c1.585,0,3.047-0.387,4.384-1.161
	c1.338-0.773,2.398-1.824,3.178-3.151c0.781-1.326,1.173-2.775,1.173-4.347S49.601,29.824,48.819,28.498z M30.255,30.993
	c-0.865-0.018-2.218-0.311-3.419-0.572c-1.177-0.257-2.192-0.479-2.876-0.479h-5.856h-0.946c-0.501,0-0.994-0.045-1.479-0.12
	c-3.046-0.476-5.69-2.285-7.372-3.444c-0.566-1.755-0.875-3.623-0.875-5.562c0-2.167,0.385-4.246,1.085-6.177
	c0.606,0.097,1.109,0.159,1.413,0.159c1.559,0,3.958-0.896,6.737-1.935c2.465-0.921,5.259-1.965,6.655-1.965
	c1.156,0,3.675,0.882,9.101,5.085l0.256,0.197c0.507,0.389,1.694,1.626,2.861,2.895c0.003,0.004,0.007,0.008,0.01,0.012H24.491
	c-0.201,0-0.399,0.049-0.577,0.145c-0.511,0.274-1.312,1.028-1.562,2.248c-0.048,0.237-0.083,0.485-0.083,0.758
	c0,3.19,4.527,4.039,7.524,4.602l0.576,0.109c0.487,0.094,0.886,0.218,1.217,0.359c1.339,0.574,1.524,1.469,1.524,2.149
	c0,1.263-2.003,1.538-2.774,1.538C30.312,30.996,30.281,30.994,30.255,30.993z M46.353,33.566c0,0.195-0.072,0.364-0.216,0.507
	c-0.144,0.144-0.315,0.215-0.512,0.215h-2.912v2.886c0,0.196-0.072,0.365-0.216,0.508c-0.144,0.144-0.313,0.215-0.512,0.215h-1.456
	c-0.196,0-0.368-0.071-0.512-0.215c-0.144-0.143-0.216-0.312-0.216-0.508v-2.886h-2.911c-0.196,0-0.367-0.071-0.513-0.215
	c-0.144-0.143-0.215-0.312-0.215-0.507v-1.443c0-0.195,0.071-0.365,0.215-0.508c0.146-0.143,0.316-0.214,0.513-0.214h2.911v-2.887
	c0-0.195,0.072-0.364,0.216-0.508c0.144-0.143,0.315-0.214,0.512-0.214h1.456c0.198,0,0.368,0.071,0.512,0.214
	c0.144,0.144,0.216,0.313,0.216,0.508v2.887h2.912c0.196,0,0.368,0.071,0.512,0.214s0.216,0.313,0.216,0.508V33.566z"/>
</svg>
