<?xml version="1.0" encoding="utf-8"?>
<!-- Generator: Adobe Illustrator 16.0.0, SVG Export Plug-In . SVG Version: 6.00 Build 0)  -->
<!DOCTYPE svg PUBLIC "-//W3C//DTD SVG 1.1//EN" "http://www.w3.org/Graphics/SVG/1.1/DTD/svg11.dtd">
<svg version="1.1" id="圖層_1" xmlns="http://www.w3.org/2000/svg" xmlns:xlink="http://www.w3.org/1999/xlink" x="0px" y="0px"
	 width="55px" height="50px" viewBox="0 0 55 50" enable-background="new 0 0 55 50" xml:space="preserve">
<g>
	<path d="M46.663,10.488c-0.001-0.006-0.002-0.012-0.005-0.018c-0.051-0.123-0.125-0.235-0.218-0.328l0,0l0,0
		c-0.093-0.094-0.204-0.168-0.328-0.219c-0.005-0.002-0.01-0.003-0.014-0.004c-0.114-0.046-0.237-0.072-0.367-0.072c0,0,0,0-0.001,0
		s-0.001,0-0.001,0h-7.598c-0.555,0-1.006,0.449-1.006,1.005s0.451,1.005,1.006,1.005h5.167L32.03,23.101l-10.165-7.475
		c-0.396-0.292-0.946-0.254-1.298,0.092L7.037,28.952c-0.396,0.388-0.404,1.024-0.017,1.421c0.197,0.201,0.458,0.303,0.719,0.303
		c0.253,0,0.508-0.096,0.703-0.287l12.92-12.637l10.172,7.479c0.398,0.294,0.952,0.252,1.305-0.098l11.885-11.858v5.176
		c0,0.555,0.45,1.005,1.006,1.005c0.555,0,1.005-0.45,1.005-1.005v-7.599C46.734,10.724,46.708,10.602,46.663,10.488z"/>
	<path d="M13.013,34.153H8.075c-0.734,0-1.33,0.596-1.33,1.33v4.938c0,0.734,0.596,1.33,1.33,1.33h4.938
		c0.734,0,1.33-0.596,1.33-1.33v-4.938C14.343,34.749,13.747,34.153,13.013,34.153z"/>
	<path d="M23.707,26.782h-4.938c-0.734,0-1.33,0.595-1.33,1.329v12.311c0,0.734,0.596,1.33,1.33,1.33h4.938
		c0.734,0,1.33-0.596,1.33-1.33V28.111C25.037,27.377,24.441,26.782,23.707,26.782z"/>
	<path d="M34.542,30.803h-4.94c-0.734,0-1.33,0.596-1.33,1.33v8.289c0,0.734,0.596,1.33,1.33,1.33h4.94
		c0.733,0,1.329-0.596,1.329-1.33v-8.289C35.871,31.398,35.275,30.803,34.542,30.803z"/>
	<path d="M45.394,24.102h-4.939c-0.733,0-1.329,0.596-1.329,1.33v14.99c0,0.734,0.596,1.33,1.329,1.33h4.939
		c0.734,0,1.33-0.596,1.33-1.33v-14.99C46.724,24.697,46.128,24.102,45.394,24.102z"/>
</g>
</svg>
