<?xml version="1.0" encoding="utf-8"?>
<!-- Generator: Adobe Illustrator 16.0.0, SVG Export Plug-In . SVG Version: 6.00 Build 0)  -->
<!DOCTYPE svg PUBLIC "-//W3C//DTD SVG 1.1//EN" "http://www.w3.org/Graphics/SVG/1.1/DTD/svg11.dtd">
<svg version="1.1" id="圖層_1" xmlns="http://www.w3.org/2000/svg" xmlns:xlink="http://www.w3.org/1999/xlink" x="0px" y="0px"
	 width="55px" height="50px" viewBox="0 0 55 50" enable-background="new 0 0 55 50" xml:space="preserve">
<path d="M49.992,25.962v-4.728c0-1.19-0.977-2.158-2.178-2.158h-9.02c-1.002-1.127-3.594-4.001-4.635-4.797l-0.244-0.189
	c-3.102-2.401-7.572-5.595-10.594-5.595c-1.839,0-4.593,1.029-7.511,2.118c-2.232,0.835-4.765,1.781-5.882,1.781
	c-0.092,0-0.229-0.012-0.4-0.033c-0.549-0.067-1.465-0.233-2.492-0.438c-0.354,0.733-0.66,1.491-0.925,2.269
	C5.4,16.273,5.007,18.5,5.007,20.816c0,1.38,0.14,2.728,0.401,4.033c0.21,1.049,0.497,2.071,0.862,3.058
	c0.183,0.121,0.392,0.266,0.621,0.424c0.824,0.568,1.941,1.336,3.27,2.047c1.578,0.846,3.456,1.609,5.518,1.871v7.1
	c0,1.189,0.976,2.156,2.176,2.156h16.459c-0.867-0.682-1.611-1.49-2.242-2.402H18.103v-6.754h5.858c0.42,0,1.447,0.223,2.354,0.422
	c1.277,0.277,2.701,0.58,3.801,0.617c0.07,0.002,0.154,0.014,0.223,0.014c0.74,0,1.498-0.111,2.199-0.334
	c0.035,1.484,0.412,2.861,1.156,4.125c0.781,1.326,1.84,2.379,3.18,3.152c1.338,0.773,2.799,1.16,4.383,1.16
	c1.586,0,3.047-0.387,4.383-1.16c1.34-0.773,2.4-1.826,3.18-3.152c0.781-1.326,1.172-2.775,1.172-4.346
	c0-1.572-0.391-3.021-1.172-4.348c-0.779-1.326-1.84-2.377-3.18-3.153c-1.336-0.773-2.797-1.16-4.383-1.16
	c-1.584,0-3.045,0.387-4.383,1.16c-0.775,0.449-1.443,1.001-2.031,1.632c-0.375-0.594-0.932-1.167-1.781-1.624
	c-0.594-0.32-1.32-0.588-2.225-0.764l-0.592-0.111c-1.518-0.285-5.551-1.041-5.551-2.238c0-0.373,0.123-0.613,0.23-0.749h13.332
	c0.004,0,0.006,0,0.008,0c0.049,0.002,0.094-0.006,0.141-0.01h9.164v2.259C48.488,24.366,49.305,25.103,49.992,25.962z
	 M36.506,31.23c0-0.145,0.059-0.271,0.176-0.377c0.117-0.107,0.258-0.16,0.418-0.16h3.482v-2.422c0-0.145,0.057-0.271,0.176-0.377
	c0.117-0.107,0.258-0.16,0.416-0.16c0.162,0,0.303,0.053,0.418,0.16l5.047,4.572c0.117,0.107,0.176,0.232,0.176,0.379
	c0,0.145-0.059,0.271-0.176,0.377l-5.047,4.572c-0.115,0.107-0.256,0.16-0.418,0.16c-0.158,0-0.299-0.053-0.416-0.16
	c-0.119-0.105-0.176-0.232-0.176-0.377v-2.422H37.1c-0.16,0-0.301-0.053-0.418-0.16c-0.117-0.105-0.176-0.232-0.176-0.377V31.23z
	 M24.492,19.087c-0.203,0-0.4,0.05-0.578,0.145c-0.512,0.274-1.311,1.028-1.562,2.249c-0.049,0.237-0.084,0.485-0.084,0.759
	c0,3.188,4.528,4.038,7.524,4.601l0.578,0.109c0.486,0.094,0.885,0.217,1.217,0.359c1.338,0.574,1.523,1.469,1.523,2.15
	c0,1.262-2.004,1.537-2.773,1.537c-0.025,0-0.057-0.002-0.082-0.002c-0.867-0.018-2.219-0.311-3.42-0.572
	c-1.176-0.258-2.191-0.479-2.875-0.479h-5.858h-0.946c-0.501,0-0.994-0.045-1.478-0.121c-3.047-0.475-5.69-2.285-7.372-3.443
	c-0.567-1.757-0.876-3.624-0.876-5.563c0-2.167,0.385-4.246,1.086-6.177c0.605,0.098,1.109,0.159,1.412,0.159
	c1.56,0,3.958-0.896,6.737-1.935c2.466-0.921,5.258-1.965,6.656-1.965c1.156,0,3.674,0.883,9.102,5.085l0.254,0.197
	c0.508,0.389,1.695,1.626,2.861,2.896c0.004,0.003,0.008,0.007,0.01,0.011H24.492z"/>
</svg>
