<?xml version="1.0" encoding="utf-8"?>
<!-- Generator: Adobe Illustrator 16.0.0, SVG Export Plug-In . SVG Version: 6.00 Build 0)  -->
<!DOCTYPE svg PUBLIC "-//W3C//DTD SVG 1.1//EN" "http://www.w3.org/Graphics/SVG/1.1/DTD/svg11.dtd">
<svg version="1.1" id="圖層_1" xmlns="http://www.w3.org/2000/svg" xmlns:xlink="http://www.w3.org/1999/xlink" x="0px" y="0px"
	 width="75px" height="32px" viewBox="0 0 75 32" enable-background="new 0 0 75 32" xml:space="preserve">
<g>
	<g>
		<path d="M12.175,29.426c0.255-0.033,0.45-0.123,0.586-0.266c0.136-0.145,0.204-0.336,0.204-0.574v-0.609
			c0-0.338-0.081-0.584-0.243-0.736c-0.162-0.156-0.424-0.232-0.786-0.232H8.003V32h3.646c0.455,0,0.793-0.08,1.016-0.24
			C12.888,31.6,13,31.354,13,31.023v-0.639c0-0.268-0.072-0.484-0.214-0.65C12.641,29.566,12.438,29.463,12.175,29.426z
			 M9.053,27.82h2.436c0.186,0,0.313,0.027,0.384,0.082c0.071,0.057,0.106,0.148,0.106,0.277v0.473c0,0.131-0.036,0.225-0.106,0.277
			c-0.071,0.055-0.199,0.08-0.384,0.08H9.053V27.82z M12.005,30.654c0,0.168-0.035,0.283-0.106,0.35
			c-0.071,0.066-0.208,0.1-0.411,0.1H9.053v-1.271h2.436c0.203,0,0.339,0.033,0.411,0.098c0.071,0.064,0.106,0.18,0.106,0.346
			V30.654z M15.951,32h1.068v-4.992h-1.068V32z M19.505,29.922h2.071v-0.996h-2.071V29.922z M28,30.115
			c0.365,0,0.629-0.076,0.792-0.23c0.164-0.154,0.246-0.4,0.246-0.736v-1.172c0-0.34-0.082-0.586-0.246-0.74
			c-0.163-0.152-0.427-0.229-0.792-0.229h-3.925V32h1.051v-1.885h1.012L27.987,32h1.533l-2.119-1.885H28z M25.126,29.262v-1.389
			h2.401c0.185,0,0.312,0.029,0.379,0.086c0.068,0.059,0.103,0.16,0.103,0.305v0.602c0,0.146-0.034,0.25-0.103,0.309
			c-0.068,0.059-0.194,0.088-0.379,0.088H25.126z M33.162,29.822h2.118v-0.85h-2.118v-1.115h3.63v-0.85h-4.698V32h4.741v-0.939
			h-3.673V29.822z M43.617,27.008h-3.922V32h1.051v-1.945h2.871c0.365,0,0.629-0.076,0.793-0.229
			c0.164-0.154,0.246-0.398,0.246-0.734v-1.115c0-0.34-0.082-0.586-0.246-0.74C44.246,27.084,43.982,27.008,43.617,27.008z
			 M43.627,28.799c0,0.146-0.035,0.25-0.104,0.309c-0.066,0.059-0.193,0.088-0.379,0.088h-2.398v-1.322h2.398
			c0.186,0,0.313,0.029,0.379,0.086c0.068,0.059,0.104,0.16,0.104,0.305V28.799z M51.609,27.008h-3.377
			c-0.445,0-0.746,0.084-0.902,0.25s-0.236,0.477-0.236,0.93v2.633c0,0.455,0.08,0.768,0.236,0.934
			C47.486,31.918,47.787,32,48.232,32h3.377c0.445,0,0.748-0.082,0.904-0.246c0.156-0.166,0.234-0.479,0.234-0.934v-2.633
			c0-0.453-0.078-0.764-0.234-0.93S52.055,27.008,51.609,27.008z M51.684,31.061h-3.521V27.9h3.521V31.061z M59.809,30.115
			c0.365,0,0.629-0.076,0.793-0.23s0.246-0.4,0.246-0.736v-1.172c0-0.34-0.082-0.586-0.246-0.74
			c-0.164-0.152-0.428-0.229-0.793-0.229h-3.922V32h1.049v-1.885h1.012L59.797,32h1.531l-2.117-1.885H59.809z M56.936,29.262v-1.389
			h2.4c0.186,0,0.313,0.029,0.381,0.086c0.066,0.059,0.102,0.16,0.102,0.305v0.602c0,0.146-0.035,0.25-0.102,0.309
			c-0.068,0.059-0.195,0.088-0.381,0.088H56.936z M62.709,27.9h2.105V32h1.068v-4.1h2.113v-0.893h-5.287V27.9z M72.252,12.841
			c-2.107-0.141-4.381-0.082-6.23-1.361c-1.85-1.281-7.51-7.496-11.783-7.675c-4.271-0.179-8.164,1.981-12.24,2.183
			C37.924,6.19,29.949,6.133,28.154,4.803c-1.794-1.329-2.538-2.536-4.318-2.917c-1.78-0.381-3.414-0.802-3.714-0.878
			c-1.775-0.449-4.589-1.462-7.681-0.774C9.348,0.921,7.955,1.407,7.697,2.547c-0.258,1.141-0.923,1.885-1.206,2.34
			c-0.283,0.455-0.396,0.657-0.04,0.997C6.806,6.223,7.974,6.09,7.854,6.451c-0.12,0.36-0.086,0.817,0.601,0.82
			c0.687,0.002,1.075-0.445,2.541-0.137s2.793,0.186,2.647-0.14c-0.145-0.325,0.93-0.779,1.176-0.342
			c0.246,0.438-0.329,2.872-0.911,4.2c-0.583,1.33-1.105,2.451-3.01,2.535c-1.905,0.084-4.811,2.574-5.135,3.445
			c-0.325,0.874-0.71,1.27-1.413,1.643c-0.703,0.375-1.295,0.65-2.754,0.186c-1.46-0.467-1.688-0.061-1.567,0.842
			c0.121,0.902,1.16,1.34,2.586,1.33c1.427-0.01,2.216-1.221,2.621-0.773C5.64,20.508,6.358,19.713,7.498,19
			c1.139-0.713,1.463-0.902,2.525-1.043c1.062-0.139,2.507-1.883,3.572-2.077c1.064-0.191,3.117-0.002,4.75,0.105
			c1.633,0.109,2.944,0.355,3.082-0.426c0.137-0.779-0.186-1.906-0.186-1.906s1.559,0.631,3.312,1.693
			c1.752,1.064,5.276,1.457,8.136,1.279c2.86-0.178,6.757-2.445,9.677-2.828c0,0,2.777-0.762,5.928,1.025
			c3.148,1.787,3.791,2.883,6.699,2.813c2.91-0.068,5.354-1.749,7.984-1.467s4.182,1.12,5.578,1.844s2.572,0.383,3.031,0.781
			s0.832,0.318,1.021-0.406c0.188-0.723-0.479-1.24-1.209-1.448c-0.732-0.207-3.27-1.428-3.27-1.428s0.701-0.375,2.152,0.301
			s2.096,1.717,2.793,1.5c0.695-0.215,0.064-1.573,0.064-1.573s1.365,0.195,1.77-0.672C75.314,14.203,74.359,12.982,72.252,12.841z
			 M60.199,13.039c-2.154-0.248-4.016-1.268-4.016-1.268s0.012-1.576-0.465-2.818s-2.645-2.491-2.645-2.491
			c2.057,0.084,4.67,2.009,5.791,3.016c1.676,1.5,3.988,3.264,3.988,3.264S62.355,13.287,60.199,13.039z M3.294,25.016
			c9.236-2.561,21.513-4.123,34.987-4.123c13.475,0,25.752,1.563,34.988,4.123c-8.283-3.553-20.879-5.82-34.988-5.82
			C24.172,19.195,11.576,21.463,3.294,25.016z"/>
	</g>
</g>
</svg>
