<?xml version="1.0" encoding="utf-8"?>
<!-- Generator: Adobe Illustrator 16.0.0, SVG Export Plug-In . SVG Version: 6.00 Build 0)  -->
<!DOCTYPE svg PUBLIC "-//W3C//DTD SVG 1.1//EN" "http://www.w3.org/Graphics/SVG/1.1/DTD/svg11.dtd">
<svg version="1.1" id="圖層_1" xmlns="http://www.w3.org/2000/svg" xmlns:xlink="http://www.w3.org/1999/xlink" x="0px" y="0px"
	 width="55px" height="50px" viewBox="0 0 55 50" enable-background="new 0 0 55 50" xml:space="preserve">
<g>
	<g>
		<path d="M25.122,42.683c-9.806,0-17.784-7.933-17.784-17.682c0-9.751,7.979-17.684,17.784-17.684
			c8.747,0,16.034,6.315,17.507,14.602l-1.918-1.906c-0.457-0.454-1.195-0.454-1.652,0c-0.457,0.453-0.457,1.189,0,1.644
			l3.834,3.812l0.156,0.156l0.199,0.197c0.219,0.218,0.516,0.341,0.826,0.341c0.215,0,0.422-0.063,0.605-0.172
			c0.078-0.049,0.154-0.103,0.221-0.169l0.326-0.324l3.861-3.841c0.457-0.454,0.457-1.19,0-1.644c-0.455-0.454-1.195-0.454-1.652,0
			l-2.373,2.359c-1.299-9.793-9.742-17.379-19.94-17.379c-11.095,0-20.121,8.976-20.121,20.008c0,11.031,9.026,20.006,20.121,20.006
			c2.972,0,5.792-0.649,8.331-1.804c-0.518-0.594-0.979-1.241-1.355-1.939C29.955,42.176,27.597,42.683,25.122,42.683z
			 M15.116,34.884c0,0.642,0.524,1.162,1.169,1.162c0.646,0,1.169-0.521,1.169-1.162c0-2.124,0.734-3.886,2.245-5.39
			c1.514-1.503,3.286-2.234,5.421-2.234c2.133,0,3.907,0.731,5.419,2.234c0.6,0.596,1.072,1.235,1.432,1.919
			c0.389-0.769,0.865-1.486,1.422-2.136c-0.35-0.498-0.746-0.976-1.199-1.428c-0.883-0.877-1.859-1.547-2.916-2.029
			c0.197-0.158,0.389-0.325,0.574-0.51c1.301-1.296,1.961-2.878,1.961-4.703s-0.66-3.408-1.961-4.704
			c-1.303-1.293-2.893-1.949-4.731-1.949c-1.836,0-3.428,0.655-4.732,1.949c-1.299,1.294-1.958,2.877-1.958,4.704
			s0.659,3.41,1.96,4.704c0.185,0.184,0.376,0.351,0.572,0.509c-1.056,0.482-2.033,1.152-2.916,2.031
			C16.102,29.785,15.116,32.151,15.116,34.884z M20.768,20.607c0-1.206,0.417-2.207,1.273-3.06c0.86-0.854,1.868-1.27,3.079-1.27
			c1.211,0,2.219,0.415,3.077,1.269c0.859,0.855,1.277,1.856,1.277,3.061s-0.418,2.205-1.277,3.061
			c-0.858,0.853-1.864,1.268-3.077,1.268c-1.212,0-2.22-0.415-3.078-1.268C21.185,22.814,20.768,21.813,20.768,20.607z
			 M48.867,32.004c-0.752-1.283-1.773-2.299-3.064-3.048c-1.289-0.749-2.699-1.124-4.227-1.124c-1.529,0-2.938,0.375-4.229,1.124
			s-2.313,1.765-3.064,3.048c-0.754,1.283-1.129,2.684-1.129,4.203s0.375,2.921,1.129,4.204c0.752,1.282,1.773,2.299,3.064,3.048
			c1.291,0.748,2.699,1.123,4.229,1.123c1.527,0,2.938-0.375,4.227-1.123c1.291-0.749,2.313-1.766,3.064-3.048
			c0.754-1.283,1.131-2.685,1.131-4.204S49.621,33.287,48.867,32.004z M47.098,34.834c0,0.124-0.045,0.231-0.137,0.322
			c-0.09,0.091-0.199,0.136-0.324,0.136h-3.221c-0.201,0-0.342-0.095-0.424-0.286c-0.082-0.186-0.047-0.351,0.102-0.493l0.984-0.986
			c-0.336-0.315-0.719-0.557-1.15-0.726c-0.432-0.17-0.883-0.254-1.352-0.254c-0.5,0-0.975,0.096-1.428,0.289
			s-0.844,0.454-1.176,0.783s-0.592,0.719-0.787,1.169s-0.291,0.923-0.291,1.419s0.096,0.969,0.291,1.42
			c0.195,0.449,0.455,0.84,0.787,1.168c0.332,0.329,0.723,0.59,1.176,0.783s0.928,0.289,1.428,0.289c0.57,0,1.109-0.123,1.617-0.371
			s0.938-0.599,1.287-1.051c0.033-0.049,0.088-0.076,0.166-0.086c0.07,0,0.131,0.021,0.18,0.064l0.984,0.986
			c0.039,0.038,0.059,0.088,0.061,0.146c0.004,0.061-0.014,0.113-0.047,0.161c-0.521,0.629-1.154,1.116-1.896,1.462
			c-0.744,0.346-1.527,0.518-2.352,0.518c-0.748,0-1.463-0.145-2.143-0.436c-0.682-0.291-1.27-0.682-1.764-1.172
			c-0.492-0.492-0.885-1.075-1.178-1.752s-0.439-1.387-0.439-2.131c0-0.743,0.146-1.453,0.439-2.131
			c0.293-0.676,0.686-1.26,1.178-1.752c0.494-0.49,1.082-0.881,1.764-1.172c0.68-0.291,1.395-0.436,2.143-0.436
			c0.705,0,1.387,0.132,2.045,0.396c0.66,0.264,1.246,0.637,1.758,1.119l0.936-0.922c0.145-0.148,0.309-0.182,0.496-0.101
			c0.191,0.081,0.287,0.222,0.287,0.421V34.834z M43.186,36.665c0.068,0,0.123,0.021,0.166,0.063
			c0.043,0.043,0.064,0.098,0.064,0.165v0.458c0,0.066-0.021,0.121-0.064,0.164s-0.098,0.064-0.166,0.064h-2.301
			c-0.066,0-0.121-0.021-0.164-0.064s-0.066-0.098-0.066-0.164v-3.203c0-0.066,0.023-0.121,0.066-0.165
			c0.043-0.042,0.098-0.063,0.164-0.063h0.461c0.066,0,0.121,0.021,0.166,0.063c0.043,0.044,0.064,0.099,0.064,0.165v2.517H43.186z"
			/>
	</g>
</g>
</svg>
