<?xml version="1.0" encoding="utf-8"?>
<!-- Generator: Adobe Illustrator 16.0.0, SVG Export Plug-In . SVG Version: 6.00 Build 0)  -->
<!DOCTYPE svg PUBLIC "-//W3C//DTD SVG 1.1//EN" "http://www.w3.org/Graphics/SVG/1.1/DTD/svg11.dtd">
<svg version="1.1" id="圖層_1" xmlns="http://www.w3.org/2000/svg" xmlns:xlink="http://www.w3.org/1999/xlink" x="0px" y="0px"
	 width="55px" height="50px" viewBox="0 0 55 50" enable-background="new 0 0 55 50" xml:space="preserve">
<g>
	<g>
		<path d="M37.15,35.004c1.359,0,2.521-0.488,3.484-1.465c0.963-0.979,1.445-2.156,1.445-3.537s-0.482-2.559-1.445-3.535
			C39.672,25.488,38.51,25,37.15,25c-1.361,0-2.523,0.488-3.486,1.467c-0.963,0.977-1.443,2.154-1.443,3.535s0.48,2.559,1.443,3.537
			C34.627,34.516,35.789,35.004,37.15,35.004z M44.852,37.484c-0.197-0.664-0.445-1.232-0.75-1.707
			c-0.305-0.473-0.705-0.857-1.207-1.158c-0.5-0.299-1.076-0.449-1.727-0.449c-1.121,1.111-2.461,1.668-4.018,1.668
			c-1.559,0-2.896-0.557-4.02-1.668c-0.65,0-1.225,0.15-1.727,0.449c-0.5,0.301-0.904,0.686-1.207,1.158
			c-0.303,0.475-0.555,1.043-0.75,1.707c-0.197,0.664-0.332,1.324-0.406,1.98c-0.07,0.656-0.107,1.352-0.107,2.09
			c0,0.947,0.268,1.758,0.803,2.436c0.533,0.678,1.178,1.016,1.932,1.016h10.965c0.752,0,1.396-0.338,1.932-1.016
			c0.533-0.678,0.803-1.488,0.803-2.436c0-0.738-0.039-1.434-0.111-2.09S45.049,38.148,44.852,37.484z M51.617,19.763
			c-0.504-0.511-1.318-0.511-1.822,0l-2.574,2.611C45.934,11.197,36.549,2.492,25.193,2.492c-12.234,0-22.188,10.098-22.188,22.51
			c0,12.41,9.953,22.506,22.188,22.506c0.711,0,1.287-0.586,1.287-1.307c0-0.723-0.576-1.309-1.287-1.309
			c-10.813,0-19.609-8.924-19.609-19.891c0-10.971,8.796-19.895,19.609-19.895c9.801,0,17.945,7.337,19.381,16.882l-2.193-2.227
			c-0.504-0.511-1.32-0.511-1.822,0c-0.504,0.51-0.504,1.338,0,1.85l4.619,4.686c0.24,0.244,0.568,0.383,0.91,0.383
			s0.67-0.139,0.912-0.383l4.617-4.686C52.121,21.101,52.121,20.273,51.617,19.763z M26.957,9.627h-1.799
			c-0.264,0-0.479,0.085-0.647,0.257c-0.17,0.17-0.254,0.39-0.254,0.655v13.528h-8.875c-0.263,0-0.476,0.085-0.646,0.255
			c-0.169,0.17-0.254,0.391-0.254,0.656v1.826c0,0.266,0.085,0.484,0.254,0.656c0.17,0.17,0.383,0.256,0.646,0.256h11.575
			c0.264,0,0.479-0.086,0.646-0.256c0.17-0.172,0.252-0.391,0.252-0.656V10.539c0-0.266-0.082-0.485-0.252-0.655
			C27.436,9.712,27.221,9.627,26.957,9.627z"/>
	</g>
</g>
</svg>
