<?xml version="1.0" encoding="utf-8"?>
<!-- Generator: Adobe Illustrator 16.0.0, SVG Export Plug-In . SVG Version: 6.00 Build 0)  -->
<!DOCTYPE svg PUBLIC "-//W3C//DTD SVG 1.1//EN" "http://www.w3.org/Graphics/SVG/1.1/DTD/svg11.dtd">
<svg version="1.1" id="圖層_1" xmlns="http://www.w3.org/2000/svg" xmlns:xlink="http://www.w3.org/1999/xlink" x="0px" y="0px"
	 width="55px" height="50px" viewBox="0 0 55 50" enable-background="new 0 0 55 50" xml:space="preserve">
<g>
	<g>
		<path d="M25.123,42.683c-9.806,0-17.784-7.933-17.784-17.682c0-9.751,7.978-17.684,17.784-17.684
			c8.748,0,16.035,6.315,17.506,14.602l-1.916-1.906c-0.457-0.454-1.197-0.454-1.654,0c-0.455,0.453-0.455,1.189,0,1.644
			l3.834,3.812l0.156,0.156l0.199,0.197c0.219,0.218,0.518,0.341,0.826,0.341c0.217,0,0.424-0.063,0.605-0.172
			c0.08-0.049,0.154-0.103,0.221-0.169l0.328-0.324l3.861-3.841c0.457-0.454,0.457-1.19,0-1.644c-0.457-0.454-1.197-0.454-1.652,0
			l-2.373,2.359C43.766,12.578,35.32,4.993,25.123,4.993c-11.095,0-20.121,8.976-20.121,20.008c0,11.031,9.026,20.006,20.121,20.006
			c2.971,0,5.791-0.648,8.332-1.803c-0.52-0.595-0.979-1.242-1.357-1.94C29.955,42.176,27.598,42.683,25.123,42.683z M15.118,34.884
			c0,0.642,0.523,1.162,1.168,1.162c0.646,0,1.17-0.521,1.17-1.162c0-2.123,0.734-3.887,2.244-5.39
			c1.514-1.503,3.286-2.233,5.421-2.233s3.906,0.73,5.42,2.232c0.6,0.597,1.072,1.236,1.43,1.92c0.391-0.77,0.867-1.486,1.424-2.136
			c-0.35-0.498-0.746-0.976-1.201-1.428c-0.883-0.877-1.859-1.547-2.914-2.029c0.195-0.158,0.389-0.326,0.572-0.51
			c1.303-1.295,1.961-2.878,1.961-4.703s-0.658-3.408-1.961-4.704c-1.301-1.293-2.893-1.949-4.73-1.949
			c-1.836,0-3.427,0.655-4.731,1.95c-1.299,1.293-1.959,2.875-1.959,4.703c0,1.827,0.66,3.41,1.961,4.704
			c0.184,0.184,0.375,0.351,0.572,0.509c-1.057,0.482-2.033,1.152-2.916,2.03C16.104,29.785,15.118,32.151,15.118,34.884z
			 M20.769,20.607c0-1.206,0.418-2.207,1.273-3.06c0.86-0.854,1.868-1.27,3.079-1.27c1.213,0,2.219,0.415,3.076,1.269
			c0.861,0.855,1.279,1.856,1.279,3.061s-0.418,2.205-1.277,3.061c-0.859,0.853-1.865,1.268-3.078,1.268
			c-1.211,0-2.219-0.415-3.077-1.268C21.187,22.814,20.769,21.813,20.769,20.607z M48.869,32.004
			c-0.752-1.282-1.773-2.299-3.064-3.048c-1.291-0.748-2.699-1.123-4.229-1.123c-1.527,0-2.938,0.375-4.227,1.123
			c-1.291,0.749-2.313,1.766-3.066,3.048c-0.752,1.283-1.129,2.685-1.129,4.203c0,1.521,0.377,2.921,1.129,4.204
			c0.754,1.283,1.775,2.3,3.066,3.048c1.289,0.749,2.699,1.123,4.227,1.123c1.529,0,2.938-0.374,4.229-1.123
			c1.291-0.748,2.313-1.765,3.064-3.048c0.754-1.283,1.129-2.684,1.129-4.204C49.998,34.688,49.623,33.287,48.869,32.004z
			 M47.039,34.932l-5.955,5.921c-0.141,0.138-0.307,0.208-0.506,0.208c-0.189,0-0.354-0.07-0.492-0.208l-3.971-3.947
			c-0.131-0.131-0.197-0.295-0.197-0.49c0-0.204,0.066-0.371,0.197-0.502l0.998-0.981c0.139-0.138,0.305-0.207,0.494-0.207
			s0.355,0.069,0.492,0.207l2.479,2.465l4.475-4.438c0.139-0.138,0.303-0.207,0.494-0.207c0.189,0,0.354,0.069,0.494,0.207
			l0.998,0.981c0.131,0.131,0.197,0.299,0.197,0.502C47.236,34.638,47.17,34.801,47.039,34.932z"/>
	</g>
</g>
</svg>
