<?xml version="1.0" encoding="utf-8"?>
<!-- Generator: Adobe Illustrator 16.0.0, SVG Export Plug-In . SVG Version: 6.00 Build 0)  -->
<!DOCTYPE svg PUBLIC "-//W3C//DTD SVG 1.1//EN" "http://www.w3.org/Graphics/SVG/1.1/DTD/svg11.dtd">
<svg version="1.1" id="圖層_1" xmlns="http://www.w3.org/2000/svg" xmlns:xlink="http://www.w3.org/1999/xlink" x="0px" y="0px"
	 width="55px" height="50px" viewBox="0 0 55 50" enable-background="new 0 0 55 50" xml:space="preserve">
<g>
	<g>
		<path d="M4.999,42.902c0,1.154,0.92,2.092,2.055,2.092h7.631c1.133,0,2.053-0.938,2.053-2.092V31.094H4.999V42.902z
			 M21.523,42.902c0,1.154,0.92,2.092,2.055,2.092h7.631c1.133,0,2.053-0.938,2.053-2.092V19.5H21.523V42.902z M38.262,42.902
			c0,1.154,0.92,2.092,2.055,2.092h7.633c1.133,0,2.053-0.938,2.053-2.092V25.825h-11.74V42.902z M12.968,23.399
			c0.17-0.125,0.336-0.265,0.493-0.424c0.716-0.729,1.075-1.609,1.075-2.641s-0.359-1.91-1.075-2.641
			c-0.718-0.729-1.581-1.094-2.595-1.094c-1.012,0-1.875,0.365-2.593,1.094C7.557,18.424,7.2,19.303,7.2,20.334
			s0.357,1.911,1.074,2.641c0.157,0.159,0.322,0.299,0.493,0.423c-0.75,0.29-1.434,0.743-2.049,1.368
			c-1.146,1.168-1.719,2.574-1.719,4.224h11.74c0-1.65-0.575-3.056-1.721-4.224C14.402,24.141,13.718,23.688,12.968,23.399z
			 M29.492,11.804c0.17-0.125,0.336-0.264,0.494-0.423c0.715-0.729,1.074-1.61,1.074-2.64c0-1.031-0.359-1.911-1.074-2.64
			c-0.719-0.729-1.582-1.094-2.594-1.094c-1.013,0-1.877,0.365-2.594,1.094s-1.074,1.609-1.074,2.64c0,1.03,0.357,1.911,1.074,2.64
			c0.157,0.16,0.321,0.298,0.492,0.423c-0.75,0.291-1.434,0.743-2.049,1.368c-1.146,1.167-1.719,2.574-1.719,4.224h11.739
			c0-1.649-0.574-3.056-1.721-4.224C30.926,12.546,30.242,12.094,29.492,11.804z M48.281,19.496
			c-0.615-0.626-1.299-1.077-2.049-1.368c0.17-0.125,0.336-0.264,0.492-0.423c0.717-0.729,1.076-1.61,1.076-2.64
			c0-1.031-0.359-1.911-1.076-2.64s-1.582-1.094-2.594-1.094s-1.875,0.365-2.594,1.094c-0.717,0.729-1.074,1.609-1.074,2.64
			c0,1.03,0.357,1.911,1.074,2.64c0.158,0.159,0.322,0.298,0.492,0.423c-0.75,0.291-1.434,0.742-2.049,1.368
			c-1.145,1.167-1.719,2.574-1.719,4.224h11.74C50.002,22.07,49.426,20.663,48.281,19.496z"/>
	</g>
</g>
</svg>
