<?xml version="1.0" encoding="utf-8"?>
<!-- Generator: Adobe Illustrator 16.0.0, SVG Export Plug-In . SVG Version: 6.00 Build 0)  -->
<!DOCTYPE svg PUBLIC "-//W3C//DTD SVG 1.1//EN" "http://www.w3.org/Graphics/SVG/1.1/DTD/svg11.dtd">
<svg version="1.1" id="圖層_1" xmlns="http://www.w3.org/2000/svg" xmlns:xlink="http://www.w3.org/1999/xlink" x="0px" y="0px"
	 width="55px" height="50px" viewBox="0 0 55 50" enable-background="new 0 0 55 50" xml:space="preserve">
<g>
	<g>
		<path d="M25.123,42.683C15.317,42.683,7.339,34.75,7.339,25c0-9.75,7.979-17.683,17.784-17.683
			c8.747,0,16.035,6.315,17.506,14.601l-1.917-1.905c-0.457-0.454-1.196-0.454-1.653,0c-0.456,0.454-0.456,1.189,0,1.644
			l3.834,3.813l0.156,0.155l0.199,0.197c0.219,0.218,0.517,0.341,0.826,0.341c0.216,0,0.423-0.063,0.605-0.172
			c0.079-0.049,0.154-0.103,0.221-0.169l0.327-0.324l3.861-3.841c0.457-0.454,0.457-1.189,0-1.644c-0.456-0.454-1.196-0.454-1.652,0
			l-2.373,2.359c-1.299-9.794-9.743-17.379-19.94-17.379C14.028,4.993,5.001,13.968,5.001,25c0,11.032,9.027,20.007,20.122,20.007
			c2.971,0,5.79-0.649,8.331-1.804c-0.519-0.594-0.979-1.241-1.356-1.939C29.955,42.176,27.598,42.683,25.123,42.683z
			 M15.117,34.884c0,0.642,0.524,1.162,1.169,1.162c0.646,0,1.169-0.521,1.169-1.162c0-2.124,0.734-3.887,2.245-5.39
			c1.514-1.503,3.286-2.234,5.421-2.234c2.134,0,3.906,0.731,5.419,2.234c0.6,0.596,1.072,1.235,1.431,1.919
			c0.39-0.769,0.865-1.486,1.423-2.136c-0.35-0.498-0.746-0.976-1.2-1.428c-0.884-0.877-1.859-1.547-2.915-2.029
			c0.196-0.158,0.389-0.326,0.573-0.51c1.302-1.295,1.961-2.878,1.961-4.703c0-1.826-0.659-3.408-1.961-4.704
			c-1.302-1.293-2.893-1.949-4.73-1.949c-1.836,0-3.428,0.655-4.732,1.95c-1.299,1.293-1.958,2.875-1.958,4.704
			s0.659,3.41,1.96,4.705c0.185,0.183,0.376,0.35,0.572,0.508c-1.056,0.482-2.033,1.152-2.916,2.03
			C16.103,29.785,15.117,32.151,15.117,34.884z M20.769,20.607c0-1.206,0.417-2.207,1.272-3.06c0.861-0.854,1.869-1.27,3.08-1.27
			c1.212,0,2.219,0.415,3.076,1.268c0.86,0.856,1.278,1.857,1.278,3.061c0,1.203-0.418,2.205-1.277,3.061
			c-0.858,0.853-1.864,1.268-3.077,1.268c-1.212,0-2.22-0.415-3.078-1.268C21.186,22.814,20.769,21.813,20.769,20.607z
			 M41.576,27.832c-4.652,0-8.422,3.75-8.422,8.375c0,4.626,3.77,8.375,8.422,8.375s8.422-3.749,8.422-8.375
			C49.998,31.582,46.229,27.832,41.576,27.832z M42.355,40.472v1.38h-1.559v-1.337h-1.532v-1.55h2.667
			c0.549,0,0.996-0.445,0.996-0.992s-0.447-0.991-0.996-0.991h-0.711c-1.409,0-2.556-1.14-2.556-2.54c0-1.258,0.925-2.297,2.132-2.5
			v-1.379h1.559v1.336h1.352v1.55h-2.486c-0.55,0-0.997,0.445-0.997,0.993c0,0.546,0.447,0.99,0.997,0.99h0.711
			c1.408,0,2.555,1.14,2.555,2.541C44.486,39.23,43.562,40.27,42.355,40.472z"/>
	</g>
</g>
</svg>
