<?xml version="1.0" encoding="utf-8"?>
<!-- Generator: Adobe Illustrator 16.0.0, SVG Export Plug-In . SVG Version: 6.00 Build 0)  -->
<!DOCTYPE svg PUBLIC "-//W3C//DTD SVG 1.1//EN" "http://www.w3.org/Graphics/SVG/1.1/DTD/svg11.dtd">
<svg version="1.1" id="圖層_1" xmlns="http://www.w3.org/2000/svg" xmlns:xlink="http://www.w3.org/1999/xlink" x="0px" y="0px"
	 width="20px" height="20px" viewBox="0 0 20 20" enable-background="new 0 0 20 20" xml:space="preserve">
<g>
	<g>
		<path fill-rule="evenodd" clip-rule="evenodd" d="M2.5,8.5C1.671,8.5,1,9.172,1,10v7c0,0.828,0.671,1.5,1.5,1.5
			C3.328,18.5,4,17.828,4,17v-7C4,9.172,3.328,8.5,2.5,8.5z M7.5,3.5C6.671,3.5,6,4.172,6,5v12c0,0.828,0.671,1.5,1.5,1.5
			C8.328,18.5,9,17.828,9,17V5C9,4.172,8.328,3.5,7.5,3.5z M12.5,6.5C11.672,6.5,11,7.172,11,8v9c0,0.828,0.672,1.5,1.5,1.5
			S14,17.828,14,17V8C14,7.172,13.328,6.5,12.5,6.5z M17.5,1.5C16.672,1.5,16,2.172,16,3v14c0,0.828,0.672,1.5,1.5,1.5
			S19,17.828,19,17V3C19,2.172,18.328,1.5,17.5,1.5z"/>
	</g>
</g>
</svg>
